<svg aria-hidden="true" style="position: absolute; width: 0; height: 0; overflow: hidden;" version="1.1" xmlns="http://www.w3.org/2000/svg" xmlns:xlink="http://www.w3.org/1999/xlink">
    <defs>       
        <symbol id="icon-currency" viewBox="0 0 32 32">
            <path d="M5.053 0c-2.791 0-5.053 2.262-5.053 5.053v21.895c0 2.79 2.262 5.053 5.053 5.053h21.895c2.79 0 5.053-2.262 5.053-5.053v-21.895c0-2.791-2.262-5.053-5.053-5.053h-21.895zM13.265 13.136c0 0.995 0.765 1.635 3.144 2.253s4.925 1.635 4.925 4.61c0 2.148-1.624 3.332-3.667 3.72v2.253h-3.143v-2.274c-2.012-0.43-3.73-1.718-3.856-4.013h2.305c0.115 1.236 0.964 2.2 3.123 2.2 2.316 0 2.829-1.153 2.829-1.876 0-0.974-0.524-1.896-3.143-2.525-2.923-0.702-4.925-1.907-4.925-4.327 0-2.022 1.635-3.342 3.667-3.783v-2.263h3.143v2.295c2.19 0.534 3.29 2.19 3.363 3.992h-2.316c-0.063-1.31-0.754-2.2-2.619-2.2-1.771 0-2.829 0.796-2.829 1.938z"></path>
        </symbol>
        <symbol id="icon-home" viewBox="0 0 32 32">
            <path d="M3.556 0c-1.964 0-3.556 1.592-3.556 3.556v0 24.889c0 1.964 1.592 3.556 3.556 3.556v0h24.889c1.964 0 3.556-1.592 3.556-3.556v0-24.889c0-1.964-1.592-3.556-3.556-3.556v0h-24.889zM13.867 17.988v6.901h-5.333v-9.202h-3.2l10.667-10.354 10.667 10.354h-3.2v9.202h-5.333v-6.901h-4.267z"></path>
        </symbol>        
        <symbol id="icon-statistic" viewBox="0 0 32 32">
            <path d="M3.556 0h24.889c1.964 0 3.556 1.592 3.556 3.556v24.889c0 1.964-1.592 3.556-3.556 3.556h-24.889c-1.964 0-3.556-1.592-3.556-3.556v-24.889c0-1.964 1.592-3.556 3.556-3.556zM26.181 13.63c1.244 0 2.263-1.067 2.263-2.372 0-1.303-1.019-2.37-2.263-2.37s-2.263 1.067-2.263 2.37c0 0.213 0.023 0.416 0.080 0.604l-4.016 4.22c-0.167-0.053-0.36-0.084-0.56-0.084-0.009 0-0.019 0-0.028 0l0.001-0c-0.206 0-0.409 0.023-0.59 0.084l-2.885-3.022c0.051-0.176 0.080-0.378 0.080-0.587 0-0.011-0-0.021-0-0.032l0 0.002c0-1.303-1.019-2.37-2.263-2.37s-2.261 1.067-2.261 2.37c0 0.213 0.021 0.427 0.078 0.617l-5.159 5.392c-0.164-0.053-0.353-0.084-0.549-0.084-0.009 0-0.019 0-0.028 0l0.001-0c-1.244 0-2.263 1.067-2.263 2.372 0 1.303 1.019 2.37 2.263 2.37s2.261-1.067 2.261-2.37c0-0.213-0.021-0.416-0.078-0.604l5.147-5.404c0.181 0.059 0.386 0.082 0.588 0.082 0.204 0 0.409-0.023 0.588-0.082l2.885 3.022c-0.051 0.176-0.080 0.378-0.080 0.587 0 0.010 0 0.020 0 0.030l-0-0.002c0 1.305 1.019 2.372 2.263 2.372s2.263-1.067 2.263-2.372c0-0.213-0.023-0.427-0.080-0.615l4.028-4.208c0.18 0.059 0.373 0.084 0.576 0.084z"></path>
        </symbol>        
    </defs>
</svg>